<svg fill="none" xmlns="http://www.w3.org/2000/svg" viewBox="0 0 64 64"><path d="M17.27 51.956l26.76-10.414-1.246-2.468-19.646 3.762-5.062 6.105-.807 3.015z" fill="#3F7DBF"/><path d="M38.76 0L12 10.408V48.294a3.897 3.897 0 003.898 3.899 3.897 3.897 0 003.899-3.899v-8.96l18.958-7.375V0h.006z" fill="url(#paint0_linear)"/><path d="M47.857 11.878a3.88 3.88 0 00-2.302.76l-23.32 10.034 5.365 3.364V64l24.156-10.408V15.783a3.899 3.899 0 00-3.899-3.905z" fill="url(#paint1_linear)"/><path d="M19.803 48.539V26.424a3.897 3.897 0 013.898-3.899 3.897 3.897 0 013.899 3.899v17.872" fill="#3F7DBF"/><defs><linearGradient id="paint0_linear" x1="32.196" y1="41.531" x2="16.389" y2="2.084" gradientUnits="userSpaceOnUse"><stop offset="0" stop-color="#1775FC"/><stop offset=".736" stop-color="#83D6F2"/></linearGradient><linearGradient id="paint1_linear" x1="59.218" y1="79.681" x2="24.227" y2="7.614" gradientUnits="userSpaceOnUse"><stop offset="0" stop-color="#1775FC"/><stop offset=".736" stop-color="#83D6F2"/></linearGradient></defs></svg>